# xmcd CD database file
#
# Track frame offsets:
#	150
#	5665
#	14357
#	62960
#	73600
#	81072
#
# Disc length: 1124 seconds
#
# Revision: 0
# Processed by: cddbd v1.5.1PL0 Copyright (c) Steve Scherf et al.
# Submitted via: CDex 1.51
#
DISCID=48046206
DTITLE=真殿光昭・紗ゆり・他 - 勇者王ガオガイガー FINAL 最強キャラクターセット VOL.3 「ソルJ編」　宇宙の空は、俺の空
DYEAR=1900
DGENRE=アニメ
TTITLE0=イントロダクション
TTITLE1=高井治/オープニングテーマ「美しき光の翼」（TVサイズ）
TTITLE2=メインストーリー
TTITLE3=※-mai-/エンディングテーマ「J」（TVサイズ）
TTITLE4=コンクルージョン
TTITLE5=小林清志/次回予告
EXTD=
EXTT0=
EXTT1=
EXTT2=
EXTT3=
EXTT4=
EXTT5=
PLAYORDER=
